HIERARCHY
ROOT Hips
{
	OFFSET 0.000000 0.000000 0.000000 
	CHANNELS 6 Xposition Yposition Zposition Zrotation Yrotation Xrotation
	JOINT LeftUpLeg
	{
		OFFSET 1.363060 -1.794630 0.839290 
		CHANNELS 3 Zrotation Yrotation Xrotation
		JOINT LeftLeg
		{
			OFFSET 2.448110 -6.726130 0.000000 
			CHANNELS 3 Zrotation Yrotation Xrotation
			JOINT LeftFoot
			{
				OFFSET 2.562200 -7.039590 0.000000 
				CHANNELS 3 Zrotation Yrotation Xrotation
				JOINT LeftToeBase
				{
					OFFSET 0.157640 -0.433110 2.322550 
					CHANNELS 3 Zrotation Yrotation Xrotation
					End Site
					{
						OFFSET 0.000000 0.000000 0.000000 
					}
				}
			}
		}
	}
	JOINT RightUpLeg
	{
		OFFSET -1.305520 -1.794630 0.839290 
		CHANNELS 3 Zrotation Yrotation Xrotation
		JOINT RightLeg
		{
			OFFSET -2.542530 -6.985550 0.000000 
			CHANNELS 3 Zrotation Yrotation Xrotation
			JOINT RightFoot
			{
				OFFSET -2.568260 -7.056230 0.000000 
				CHANNELS 3 Zrotation Yrotation Xrotation
				JOINT RightToeBase
				{
					OFFSET -0.164730 -0.452590 2.363150 
					CHANNELS 3 Zrotation Yrotation Xrotation
					End Site
					{
						OFFSET 0.000000 0.000000 0.000000 
					}
				}
			}
		}
	}
	JOINT Spine
	{
		OFFSET 0.028270 2.035590 -0.193380 
		CHANNELS 3 Zrotation Yrotation Xrotation
		JOINT Spine1
		{
			OFFSET 0.056720 2.048850 -0.042750 
			CHANNELS 3 Zrotation Yrotation Xrotation
			JOINT Neck1
			{
				OFFSET -0.054170 1.746240 0.172020 
				CHANNELS 3 Zrotation Yrotation Xrotation
				JOINT Head
				{
					OFFSET 0.104070 1.761360 -0.123970 
					CHANNELS 3 Zrotation Yrotation Xrotation
					End Site
					{
						OFFSET 0.000000 0.000000 0.000000 
					}
				}
			}
			JOINT LeftArm
			{
				OFFSET 3.362410 1.200890 -0.311210 
				CHANNELS 3 Zrotation Yrotation Xrotation
				JOINT LeftForeArm
				{
					OFFSET 4.983000 -0.000000 -0.000000 
					CHANNELS 3 Zrotation Yrotation Xrotation
					JOINT LeftHand
					{
						OFFSET 3.483560 -0.000000 -0.000000 
						CHANNELS 3 Zrotation Yrotation Xrotation
						JOINT LeftHandIndex1
						{
							OFFSET 0.715260 -0.000000 -0.000000 
							CHANNELS 3 Zrotation Yrotation Xrotation
							End Site
							{
								OFFSET 0.000000 0.000000 0.000000 
							}
						}
					}
				}
			}
			JOINT RightArm
			{
				OFFSET -3.136600 1.374050 -0.404650 
				CHANNELS 3 Zrotation Yrotation Xrotation
				JOINT RightForeArm
				{
					OFFSET -5.241900 -0.000000 -0.000000 
					CHANNELS 3 Zrotation Yrotation Xrotation
					JOINT RightHand
					{
						OFFSET -3.444170 -0.000000 -0.000000 
						CHANNELS 3 Zrotation Yrotation Xrotation
						JOINT RightHandIndex1
						{
							OFFSET -0.622530 -0.000000 -0.000000 
							CHANNELS 3 Zrotation Yrotation Xrotation
							End Site
							{
								OFFSET 0.000000 0.000000 0.000000 
							}
						}
					}
				}
			}
		}
	}
}
MOTION
Frames: 10
Frame Time: 0.041667
1.526627 18.061979 0.399734 106.549684 89.516554 123.642955 -17.369035 1.079473 -22.886471 1.116419 5.107583 15.489510 1.072862 -2.876963 3.035856 2.367300 -9.592500 -27.666900 20.556396 -2.347890 -13.541251 -0.764323 0.548360 1.150697 -0.571907 6.503736 6.545918 -0.139200 2.404500 -6.624900 1.589848 -1.741085 -1.036995 -3.852597 -1.241070 4.150038 6.307903 -1.948918 17.393716 -0.370300 -0.006200 9.343400 -94.738389 -51.497129 30.100464 50.204242 -50.502911 -22.143764 -1.738386 1.048037 -72.812484 -7.125000 0.000000 0.000000 105.306195 58.500451 25.210429 -36.405442 47.527886 -10.469175 1.362476 -0.404160 141.649574 7.125000 0.000000 0.000000 
1.526336 18.060813 0.399151 106.755641 89.527532 123.875517 -17.360661 1.063044 -22.906863 1.114369 5.103613 15.473786 1.069232 -2.857259 3.046583 2.381900 -9.619900 -27.754400 20.564010 -2.342879 -13.563752 -0.764384 0.548570 1.150810 -0.569445 6.469738 6.582721 -0.129800 2.322400 -6.397600 1.623679 -1.744297 -1.086267 -3.885595 -1.243540 4.147757 6.328314 -1.928293 17.483246 -0.360600 0.011300 9.364400 -95.078030 -51.343857 30.388648 50.316639 -50.578252 -22.248898 -1.729923 1.078434 -72.794871 -7.125000 0.000000 0.000000 105.823470 58.270318 25.591530 -36.362440 47.564138 -10.472899 1.318671 -0.451869 141.264246 7.125000 0.000000 0.000000 
1.526239 18.061105 0.400317 107.185325 89.510399 124.311228 -17.384970 1.112008 -22.928845 1.110107 5.094032 15.439679 1.076862 -2.891471 3.107596 2.393100 -9.640900 -27.821700 20.561785 -2.367264 -13.562378 -0.763108 0.549625 1.151064 -0.565076 6.412495 6.570391 -0.135300 2.370700 -6.531300 1.642335 -1.741033 -1.145917 -3.893593 -1.241879 4.125800 6.381045 -1.941566 17.539868 -0.346500 0.014700 9.369000 -95.263620 -51.170619 30.800728 50.517597 -50.673062 -22.422154 -1.738516 1.088675 -72.975682 -7.125000 0.000000 0.000000 106.226397 57.994572 25.931172 -36.302038 47.571206 -10.466308 1.246343 -0.499773 140.700846 7.125000 0.000000 0.000000 
1.526919 18.061202 0.401775 108.607554 89.489272 125.747136 -17.369278 1.019405 -22.910522 1.105591 5.092688 15.412179 1.067541 -2.838598 3.117205 2.366500 -9.591000 -27.662200 20.563346 -2.427324 -13.568791 -0.762882 0.555356 1.152242 -0.562453 6.392155 6.602280 -0.134100 2.360300 -6.502400 1.714584 -1.730658 -1.232296 -3.876108 -1.234050 4.089778 6.472588 -1.986974 17.582690 -0.315400 0.001800 9.366000 -95.549524 -51.012515 31.269153 50.698589 -50.764932 -22.576290 -1.719851 1.108202 -73.180010 -7.125000 0.000000 0.000000 106.483938 57.729763 26.176098 -36.231695 47.548866 -10.444919 1.177485 -0.523536 140.196611 7.125000 0.000000 0.000000 
1.526724 18.060813 0.401969 109.874693 89.472046 127.015844 -17.359736 0.982826 -22.905151 1.101856 5.091263 15.390184 1.073142 -2.860617 3.150594 2.337600 -9.536400 -27.488200 20.571518 -2.476541 -13.572641 -0.762968 0.560970 1.153943 -0.563597 6.423118 6.586385 -0.141400 2.423100 -6.676500 1.694336 -1.709266 -1.227284 -3.915014 -1.218120 4.114484 6.567176 -2.055059 17.666643 -0.291500 -0.015500 9.386800 -95.953202 -50.968208 31.678323 50.774384 -50.822175 -22.650455 -1.700372 1.102648 -73.306836 -7.125000 0.000000 0.000000 106.709229 57.617225 26.396329 -36.107445 47.488875 -10.392459 1.122788 -0.520536 139.767887 7.125000 0.000000 0.000000 
1.526433 18.060133 0.401289 110.105053 89.474605 127.282909 -17.376847 1.033964 -22.968552 1.099765 5.086505 15.373540 1.077912 -2.882261 3.175452 2.375800 -9.608500 -27.718100 20.575751 -2.467534 -13.611008 -0.764067 0.561182 1.155084 -0.568930 6.497805 6.546792 -0.136400 2.380600 -6.558600 1.643955 -1.686475 -1.253725 -3.980080 -1.204668 4.161450 6.634751 -2.095410 17.766509 -0.279600 -0.017600 9.406200 -96.125158 -50.825498 32.093819 51.051613 -50.942346 -22.869180 -1.672801 1.083482 -73.716052 -7.125000 0.000000 0.000000 107.024865 57.462372 26.784026 -36.141272 47.564350 -10.440738 1.109551 -0.631492 138.890228 7.125000 0.000000 0.000000 
1.526239 18.060813 0.401289 110.513168 89.510958 127.692859 -17.314666 0.991277 -22.959060 1.099931 5.093774 15.386077 1.077746 -2.879090 3.157660 2.357000 -9.573200 -27.605300 20.615595 -2.456415 -13.608248 -0.764274 0.563421 1.156666 -0.570913 6.527783 6.505087 -0.139200 2.404500 -6.624900 1.638680 -1.678281 -1.226076 -4.038397 -1.198674 4.202195 6.711506 -2.122237 17.865476 -0.260400 -0.013800 9.434900 -96.289969 -50.755282 32.448747 51.159381 -50.990991 -22.957730 -1.653177 1.085868 -74.048687 -7.125000 0.000000 0.000000 107.418041 57.304696 27.201922 -36.156163 47.652318 -10.504236 1.119283 -0.836265 137.961414 7.125000 0.000000 0.000000 
1.526530 18.061493 0.402358 110.586915 89.461249 127.783491 -17.371825 1.019106 -23.013219 1.104058 5.102431 15.416095 1.094628 -2.963107 3.154274 2.347200 -9.554500 -27.545900 20.579689 -2.479479 -13.635732 -0.763267 0.562548 1.156341 -0.567847 6.485852 6.492954 -0.140100 2.412100 -6.645900 1.596522 -1.686018 -1.227100 -4.048111 -1.202334 4.212458 6.661858 -2.138986 17.962993 -0.284300 -0.016700 9.471700 -96.592862 -50.688101 32.788769 51.062693 -50.966131 -22.893184 -1.631411 1.090904 -74.083929 -7.125000 0.000000 0.000000 107.751337 57.167595 27.317374 -36.127198 47.696900 -10.542106 1.113298 -0.980564 137.996913 7.125000 0.000000 0.000000 
1.526530 18.061493 0.403816 111.077618 89.453822 128.280379 -17.383406 1.052429 -23.050920 1.105531 5.111886 15.435935 1.109399 -3.032543 3.148055 2.341500 -9.543800 -27.511600 20.589316 -2.498477 -13.636826 -0.763053 0.564301 1.157252 -0.568708 6.500774 6.457350 -0.165000 2.617400 -7.215200 1.609345 -1.696062 -1.285162 -4.049184 -1.208882 4.167947 6.646917 -2.166607 18.160640 -0.294300 -0.014300 9.538200 -96.801196 -50.518627 33.061630 51.133023 -51.005857 -22.955969 -1.611841 1.081245 -74.225867 -7.125000 0.000000 0.000000 108.074682 56.987932 27.512851 -36.109140 47.718211 -10.533943 1.121271 -0.971247 137.582733 7.125000 0.000000 0.000000 
1.526044 18.061008 0.404107 110.981144 89.483537 128.170866 -17.365251 1.103795 -23.049462 1.105311 5.114804 15.441654 1.108002 -3.024494 3.186316 2.349700 -9.559400 -27.561400 20.608701 -2.485098 -13.614314 -0.763826 0.564269 1.157144 -0.571190 6.531728 6.471145 -0.164500 2.613200 -7.203600 1.621908 -1.682116 -1.314543 -4.086300 -1.204996 4.136396 6.695646 -2.225881 18.405842 -0.281600 -0.019500 9.619700 -96.980004 -50.350186 33.377569 51.279881 -51.072725 -23.071007 -1.571155 1.088504 -74.477533 -7.125000 0.000000 0.000000 108.504196 56.748567 27.773844 -36.144046 47.779499 -10.540774 1.119892 -0.898241 136.991927 7.125000 0.000000 0.000000 
